<svg xmlns="http://www.w3.org/2000/svg" width="43" height="48" viewBox="0 0 43 48"><g><g><g><path fill="#0d386b" d="M20.212 47.569c-.473-.056-.958-.102-1.424-.167-5.962-.812-10.747-3.628-14.354-8.449A20.04 20.04 0 0 1 .478 28.914c-.644-6.029.965-11.402 4.874-16.054C8.475 9.15 12.44 6.756 17.2 5.834c6.844-1.325 12.96.32 18.201 4.91 3.878 3.393 6.233 7.702 6.873 12.813.975 7.787-1.615 14.267-7.628 19.315-3.113 2.617-6.767 4.082-10.81 4.568-.405.048-.813.09-1.22.136zm19.816-21.06C40.051 16.295 31.727 7.929 21.5 7.893a18.647 18.647 0 0 0-13.198 5.42 18.619 18.619 0 0 0-5.492 13.16c-.02 10.232 8.34 18.61 18.585 18.629C31.638 45.12 40 36.759 40.028 26.51z"/></g><g><path fill="#0d386b" d="M21.413 3.352h-3.575a1.323 1.323 0 0 1-1.24-.868 1.34 1.34 0 0 1 .356-1.474c.234-.225.546-.35.87-.35h7.18a1.315 1.315 0 0 1 1.304 1.308 1.303 1.303 0 0 1-1.287 1.372c-1.202.017-2.403 0-3.604 0z"/></g><g><path fill="#0d386b" d="M34.283 5.499a1.211 1.211 0 0 1 .78-1.08 1.242 1.242 0 0 1 1.435.272c1.006.957 2.006 1.914 3.008 2.871.31.297.627.59.933.893a1.302 1.302 0 1 1-1.808 1.874c-1.313-1.245-2.616-2.497-3.924-3.745a1.361 1.361 0 0 1-.424-1.085z"/></g><g><path fill="#0d386b" d="M21.878 26.924l2.255-1.855c.55-.454 4.26-3.502 4.819-3.942a1.307 1.307 0 0 1 2.107.718 1.276 1.276 0 0 1-.471 1.34c-1.3 1.072-5.77 4.729-7.07 5.799-.331.273-.661.55-.996.819-.677.546-1.493.442-2.006-.26-2.152-2.947-6.492-8.964-8.64-11.916a1.319 1.319 0 1 1 2.135-1.55c1.724 2.358 5.635 7.79 7.357 10.146z"/></g></g></g></svg>