<svg width="517" height="130" viewBox="0 0 517 130" fill="none" xmlns="http://www.w3.org/2000/svg">
<path fill-rule="evenodd" clip-rule="evenodd" d="M46.5875 22.2846C57.4702 19.396 65.6741 13.5939 66.8426 8.41313C67.4516 9.06942 67.8798 9.80879 68.1011 10.627C69.6403 16.3177 60.584 23.666 47.8733 27.0398C35.1625 30.4136 23.6107 28.5353 22.0715 22.8446C21.8502 22.0262 21.848 21.1735 22.0442 20.3033C25.6706 24.2117 35.7042 25.1733 46.5875 22.2846ZM41.0136 1.67661C29.5009 4.73242 20.9862 11.0488 20.6271 16.4409C11.0456 23.4175 5.9046 32.2559 8.04277 40.1612C10.0532 47.5944 18.0536 52.5545 28.8275 54.198C28.5923 55.8316 28.2441 57.5641 27.7602 59.3968C8.76129 69.464 -2.53385 82.8229 0.485791 93.9873C4.74814 109.746 35.9179 115.165 70.1053 106.091C104.293 97.0164 128.552 76.885 124.29 61.126C121.218 49.7712 104.178 43.7846 82.1043 44.7198C80.6739 43.4263 79.4317 42.151 78.3546 40.9025C86.6732 34.1849 90.9797 26.0265 88.9914 18.675C86.8532 10.7696 77.9399 5.66155 66.1206 4.36536C63.0881 -0.126385 52.5262 -1.37918 41.0136 1.67661ZM91.1096 52.5286C98.1814 66.29 31.7749 84.3633 25.0867 72.0508C24.075 73.7603 23.7099 75.4034 24.1017 76.9036C25.9304 83.9056 43.5554 85.1466 63.4683 79.6754C83.3812 74.2042 98.0414 64.0926 96.2127 57.0906C95.6914 55.0943 93.886 53.5663 91.1096 52.5286ZM71.8196 112.432C97.498 105.616 117.575 92.5626 124.173 79.8091C127.561 97.8438 106.344 118.56 75.6779 126.699C45.0112 134.839 16.1803 127.407 10.0134 110.109C22.1632 117.887 46.1401 119.248 71.8196 112.432ZM184.904 55.1021H175.567V39.0108H161.735V55.1021H152.344V16.5676H161.735V31.865H175.567V16.5676H184.904V55.1021ZM392.179 71.2994H390.324L383.397 82.0225V71.2994H381.532V85.2146H383.397L390.324 74.4915V85.2146H392.179V71.2994ZM389.001 69.7033C389.535 69.2318 389.802 68.6106 389.802 67.8397H388.353C388.353 68.292 388.224 68.6425 387.967 68.8909C387.716 69.1394 387.365 69.2637 386.914 69.2637C386.444 69.2637 386.086 69.1394 385.841 68.8909C385.597 68.6361 385.474 68.2857 385.474 67.8397H384.015C384.015 68.6042 384.283 69.2223 384.817 69.6937C385.352 70.1652 386.051 70.401 386.914 70.401C387.777 70.401 388.472 70.1684 389.001 69.7033ZM172.356 75.0362C172.356 74.2971 172.083 73.711 171.535 73.2777C170.994 72.8381 170.231 72.6182 169.246 72.6182C168.421 72.6182 167.729 72.8444 167.168 73.2968C166.614 73.7428 166.337 74.2971 166.337 74.9598H164.483C164.483 74.2207 164.685 73.558 165.091 72.9719C165.503 72.3857 166.077 71.9301 166.811 71.6052C167.545 71.2739 168.357 71.1082 169.246 71.1082C170.817 71.1082 172.038 71.4586 172.907 72.1595C173.777 72.854 174.211 73.8224 174.211 75.0649C174.211 75.7084 174.012 76.2946 173.612 76.8234C173.213 77.3522 172.656 77.7696 171.941 78.0754C173.596 78.6233 174.424 79.7097 174.424 81.3344C174.424 82.5832 173.954 83.574 173.013 84.3067C172.073 85.0394 170.817 85.4057 169.246 85.4057C168.312 85.4057 167.461 85.2433 166.695 84.9183C165.935 84.587 165.342 84.1187 164.917 83.5134C164.492 82.9081 164.28 82.1882 164.28 81.3535H166.135C166.135 82.0862 166.428 82.6979 167.014 83.1885C167.6 83.6727 168.344 83.9148 169.246 83.9148C170.257 83.9148 171.062 83.6823 171.661 83.2172C172.266 82.752 172.569 82.1372 172.569 81.3726C172.569 79.7415 171.548 78.9101 169.506 78.8782H167.767V77.3682H169.497C170.437 77.3491 171.149 77.1388 171.632 76.7374C172.115 76.336 172.356 75.7689 172.356 75.0362ZM159.903 71.2994H161.758V85.2146H159.903V74.4915L152.976 85.2146H151.111V71.2994H152.976V82.0225L159.903 71.2994ZM178.829 72.8094H185.612V71.2994H176.965V85.2146H178.829V72.8094ZM198.065 78.7062C198.065 80.0697 197.833 81.2611 197.369 82.2805C196.906 83.2936 196.249 84.0677 195.399 84.603C194.548 85.1382 193.556 85.4057 192.423 85.4057C191.315 85.4057 190.333 85.1382 189.476 84.603C188.62 84.0614 187.953 83.2936 187.476 82.2997C187.006 81.2993 186.765 80.1429 186.752 78.8304V77.8269C186.752 76.4889 186.987 75.307 187.457 74.2812C187.927 73.2554 188.591 72.4717 189.447 71.9301C190.31 71.3822 191.296 71.1082 192.404 71.1082C193.531 71.1082 194.523 71.379 195.379 71.9206C196.242 72.4558 196.906 73.2363 197.369 74.2621C197.833 75.2815 198.065 76.4698 198.065 77.8269V78.7062ZM196.22 77.8078C196.22 76.1576 195.885 74.8929 195.215 74.0136C194.545 73.128 193.608 72.6852 192.404 72.6852C191.231 72.6852 190.307 73.128 189.631 74.0136C188.961 74.8929 188.616 76.1162 188.597 77.6835V78.7062C188.597 80.3054 188.935 81.5638 189.611 82.4812C190.294 83.3924 191.231 83.8479 192.423 83.8479C193.621 83.8479 194.548 83.4179 195.205 82.5577C195.862 81.6912 196.2 80.452 196.22 78.84V77.8078ZM205.775 72.8094H210.296V71.2994H199.418V72.8094H203.929V85.2146H205.775V72.8094ZM222.933 78.7062C222.933 80.0697 222.701 81.2611 222.238 82.2805C221.774 83.2936 221.117 84.0677 220.267 84.603C219.416 85.1382 218.425 85.4057 217.291 85.4057C216.183 85.4057 215.201 85.1382 214.344 84.603C213.488 84.0614 212.821 83.2936 212.344 82.2997C211.874 81.2993 211.633 80.1429 211.62 78.8304V77.8269C211.62 76.4889 211.855 75.307 212.325 74.2812C212.795 73.2554 213.459 72.4717 214.315 71.9301C215.178 71.3822 216.164 71.1082 217.272 71.1082C218.399 71.1082 219.391 71.379 220.247 71.9206C221.11 72.4558 221.774 73.2363 222.238 74.2621C222.701 75.2815 222.933 76.4698 222.933 77.8269V78.7062ZM221.088 77.8078C221.088 76.1576 220.753 74.8929 220.083 74.0136C219.413 73.128 218.476 72.6852 217.272 72.6852C216.099 72.6852 215.175 73.128 214.499 74.0136C213.829 74.8929 213.484 76.1162 213.465 77.6835V78.7062C213.465 80.3054 213.803 81.5638 214.48 82.4812C215.162 83.3924 216.099 83.8479 217.291 83.8479C218.489 83.8479 219.416 83.4179 220.073 82.5577C220.73 81.6912 221.069 80.452 221.088 78.84V77.8078ZM225.716 71.2994V85.2146H230.595C232.089 85.2146 233.245 84.8578 234.063 84.1442C234.881 83.4306 235.29 82.4494 235.29 81.2006C235.29 80.385 235.068 79.6842 234.623 79.098C234.185 78.5055 233.586 78.1041 232.826 77.8938C233.47 77.6198 233.979 77.2344 234.353 76.7374C234.726 76.234 234.913 75.6574 234.913 75.0075C234.913 73.7842 234.527 72.8604 233.754 72.236C232.987 71.6116 231.841 71.2994 230.314 71.2994H225.716ZM227.571 83.7141V78.7062H230.662C232.504 78.7062 233.425 79.544 233.425 81.2197C233.425 81.997 233.174 82.6087 232.672 83.0547C232.176 83.4943 231.496 83.7141 230.633 83.7141H227.571ZM230.372 77.2344H227.571V72.8094H230.314C231.235 72.8094 231.921 72.9846 232.372 73.335C232.823 73.6791 233.048 74.2334 233.048 74.998C233.048 75.6861 232.804 76.2309 232.314 76.6323C231.831 77.0337 231.184 77.2344 230.372 77.2344ZM248.68 71.2994V85.2146H246.825V72.8094H241.782L241.531 78.3239C241.434 80.1716 241.241 81.5606 240.951 82.4908C240.668 83.421 240.249 84.106 239.695 84.5456C239.142 84.9789 238.401 85.2019 237.473 85.2146H236.865V83.7141L237.251 83.695C237.85 83.6504 238.311 83.4593 238.633 83.1216C238.955 82.7775 239.199 82.2328 239.367 81.4873C239.534 80.7419 239.654 79.595 239.724 78.0467L240.014 71.2994H248.68ZM253.907 78.7826H260.003V77.2822H253.907V72.8094H260.892V71.2994H252.052V85.2146H260.989V83.7141H253.907V78.7826ZM274.109 85.2146H272.244V78.7826H265.153V85.2146H263.298V71.2994H265.153V77.2822H272.244V71.2994H274.109V85.2146ZM288.127 71.2994H286.272L279.345 82.0225V71.2994H277.481V85.2146H279.345L286.272 74.4915V85.2146H288.127V71.2994ZM299.46 78.7826H293.364V83.7141H300.445V85.2146H291.509V71.2994H300.349V72.8094H293.364V77.2822H299.46V78.7826ZM316.541 85.2146H318.406V71.2994H307.749V85.2146H309.604V72.8094H316.541V85.2146ZM329.738 78.7826H323.642V83.7141H330.724V85.2146H321.787V71.2994H330.627V72.8094H323.642V77.2822H329.738V78.7826ZM343.226 85.2146V71.2994H341.361V77.932C340.092 78.2761 338.846 78.4481 337.622 78.4481C336.572 78.4481 335.825 78.2347 335.381 77.8078C334.943 77.3809 334.72 76.6832 334.714 75.7148V71.2994H332.849V75.7626C332.869 77.1834 333.268 78.2379 334.047 78.926C334.827 79.6141 336.018 79.9582 337.622 79.9582C338.33 79.9582 338.962 79.9231 339.516 79.853C340.07 79.7766 340.685 79.6428 341.361 79.4516V85.2146H343.226ZM348.626 81.5829L347.303 85.2146H345.39L350.761 71.2994H352.384L357.766 85.2146H355.862L354.52 81.5829H348.626ZM349.187 80.0728H353.969L351.573 73.5644L349.187 80.0728ZM363.601 72.8094H368.123V71.2994H357.244V72.8094H361.756V85.2146H363.601V72.8094ZM378.161 78.7826H372.064V83.7141H379.146V85.2146H370.209V71.2994H379.049V72.8094H372.064V77.2822H378.161V78.7826ZM409.338 71.2994H411.193V85.2146H409.338V74.4915L402.41 85.2146H400.546V71.2994H402.41V82.0225L409.338 71.2994ZM421.414 83.7141V71.2994H419.549V85.2146H434.766V71.2994H432.911V83.7141H428.1V71.2994H426.254V83.7141H421.414ZM447.538 72.8094H443.017V85.2146H441.171V72.8094H436.66V71.2994H447.538V72.8094ZM449.403 85.2146L450.726 81.5829H456.62L457.963 85.2146H459.866L454.485 71.2994H452.862L447.49 85.2146H449.403ZM456.069 80.0728H451.287L453.673 73.5644L456.069 80.0728ZM464.156 71.2994L468.754 82.6533L473.353 71.2994H475.759V85.2146H473.904V79.7957L474.078 73.9467L469.46 85.2146H468.039L463.431 73.9754L463.615 79.7957V85.2146H461.76V71.2994H464.156ZM487.913 85.2146H489.777V71.2994H479.121V85.2146H480.976V72.8094H487.913V85.2146ZM503.979 78.7062C503.979 80.0697 503.747 81.2611 503.284 82.2805C502.82 83.2936 502.163 84.0677 501.313 84.603C500.463 85.1382 499.471 85.4057 498.337 85.4057C497.229 85.4057 496.247 85.1382 495.39 84.603C494.534 84.0614 493.867 83.2936 493.391 82.2997C492.92 81.2993 492.679 80.1429 492.666 78.8304V77.8269C492.666 76.4889 492.901 75.307 493.371 74.2812C493.841 73.2554 494.505 72.4717 495.361 71.9301C496.224 71.3822 497.21 71.1082 498.318 71.1082C499.445 71.1082 500.437 71.379 501.293 71.9206C502.156 72.4558 502.82 73.2363 503.284 74.2621C503.747 75.2815 503.979 76.4698 503.979 77.8269V78.7062ZM502.134 77.8078C502.134 76.1576 501.799 74.8929 501.129 74.0136C500.459 73.128 499.522 72.6852 498.318 72.6852C497.146 72.6852 496.221 73.128 495.545 74.0136C494.875 74.8929 494.531 76.1162 494.511 77.6835V78.7062C494.511 80.3054 494.849 81.5638 495.526 82.4812C496.208 83.3924 497.146 83.8479 498.337 83.8479C499.535 83.8479 500.463 83.4179 501.12 82.5577C501.776 81.6912 502.115 80.452 502.134 78.84V77.8078ZM506.762 71.2994V85.2146H511.641C513.135 85.2146 514.291 84.8578 515.109 84.1442C515.927 83.4306 516.336 82.4494 516.336 81.2006C516.336 80.385 516.114 79.6842 515.669 79.098C515.231 78.5055 514.632 78.1041 513.872 77.8938C514.516 77.6198 515.025 77.2344 515.399 76.7374C515.772 76.234 515.959 75.6574 515.959 75.0075C515.959 73.7842 515.573 72.8604 514.8 72.236C514.033 71.6116 512.887 71.2994 511.36 71.2994H506.762ZM508.617 83.7141V78.7062H511.708C513.55 78.7062 514.471 79.544 514.471 81.2197C514.471 81.997 514.22 82.6087 513.718 83.0547C513.222 83.4943 512.542 83.7141 511.679 83.7141H508.617ZM511.418 77.2344H508.617V72.8094H511.36C512.281 72.8094 512.967 72.9846 513.418 73.335C513.869 73.6791 514.095 74.2334 514.095 74.998C514.095 75.6861 513.85 76.2309 513.36 76.6323C512.877 77.0337 512.23 77.2344 511.418 77.2344ZM200.609 47.9034H213.478L215.752 55.1021H225.838L211.444 16.5676H202.616L188.329 55.1021H198.362L200.609 47.9034ZM211.23 40.7311H202.856L207.03 27.3657L211.23 40.7311ZM275.066 55.1021H265.675V23.7399H251.683V55.1021H242.292V16.5676H275.066V55.1021ZM290.316 38.7726H305.084V31.865H290.316V23.7399H307.813V16.5676H280.925V55.1021H307.76V47.9563H290.316V38.7726ZM344.039 16.5676V55.1021H334.675V40.8634L331.919 41.2075L328.468 41.4192C323.224 41.4192 319.211 40.2988 316.428 38.058C313.646 35.7996 312.237 32.606 312.201 28.4773V16.5676H321.592V28.345C321.592 30.4446 322.1 31.962 323.117 32.8971C324.151 33.8146 325.935 34.2734 328.468 34.2734L329.27 34.2469C331.464 34.141 333.266 33.9734 334.675 33.744V16.5676H344.039ZM359.636 47.9034H372.505L374.779 55.1021H384.866L370.472 16.5676H361.643L347.356 55.1021H357.389L359.636 47.9034ZM370.258 40.7311H361.884L366.057 27.3657L370.258 40.7311ZM415.098 23.7399H403.406V55.1021H394.016V23.7399H382.538V16.5676H415.098V23.7399ZM433.799 29.8271H428.957V16.5676H419.539V55.1021H433.639C438.437 55.1021 442.253 53.92 445.089 51.5557C447.943 49.1914 449.37 46.1125 449.37 42.319C449.37 39.8665 448.728 37.6963 447.444 35.8084C446.177 33.9028 444.358 32.4296 441.986 31.3886C439.614 30.3476 436.885 29.8271 433.799 29.8271ZM428.957 47.9563V36.9729H433.719C435.681 36.9729 437.215 37.4581 438.321 38.4285C439.426 39.399 439.979 40.6782 439.979 42.2661C439.979 43.9423 439.418 45.3097 438.294 46.3683C437.188 47.427 435.681 47.9563 433.772 47.9563H428.957Z" fill="#403E3E" fill-opacity="0.4"/>
</svg>
