<svg xmlns="http://www.w3.org/2000/svg" width="100" height="108" viewBox="0 0 50 54"><g><g transform="rotate(30 26 27)"><g><path fill="#4e7497" d="M51.937 32.818c2.024 7.484-6.749 16.316-19.595 19.725-12.846 3.41-24.901.107-26.926-7.377-2.024-7.484 6.75-16.315 19.595-19.725 12.846-3.41 24.901-.107 26.926 7.377z"/></g><g><path fill="#fff" d="M52.828 28.432c1.735 6.415-8.14 14.61-22.057 18.304-13.917 3.694-26.605 1.488-28.34-4.927-1.735-6.415 8.14-14.61 22.057-18.304 13.916-3.694 26.605-1.488 28.34 4.927z"/></g><g><path fill="#4e7497" d="M52.13 25.85c1.735 6.416-8.14 14.61-22.057 18.304-13.917 3.694-26.605 1.488-28.34-4.927-1.735-6.415 8.14-14.61 22.057-18.303 13.916-3.694 26.605-1.488 28.34 4.927z"/></g><g><path fill="#fff" d="M40.7 24.208c.744 2.85-5.223 6.966-13.33 9.193-8.105 2.227-15.28 1.722-16.024-1.128-.745-2.85 5.223-6.966 13.33-9.194 8.105-2.227 15.28-1.722 16.024 1.129z"/></g><g><path fill="#4e7497" d="M11.433 14.487l9.855-.868 9.814-4.536S28.4 14.9 37.456 21.132c9.056 6.231-29.527 16.404-25.654 7.048 3.872-9.355-.369-13.693-.369-13.693z"/></g><g><path fill="#4e7497" d="M37.76 8.57c1.398 5.168-4.845 11.315-13.945 13.73-9.099 2.415-17.609.184-19.006-4.984C3.41 12.15 9.654 6.002 18.754 3.586c9.1-2.415 17.609-.184 19.007 4.984z"/></g><g><path fill="#fff" d="M29.257 5.294c.626 2.317-3.06 5.308-8.234 6.681-5.174 1.374-9.877.609-10.503-1.707-.627-2.317 3.06-5.308 8.234-6.682 5.174-1.373 9.876-.608 10.503 1.708z"/></g><g><path fill="#4e7497" d="M28.733 3.358c.627 2.317-3.06 5.308-8.234 6.681-5.174 1.374-9.876.61-10.503-1.707-.627-2.317 3.06-5.308 8.234-6.682 5.174-1.373 9.877-.608 10.503 1.708z"/></g></g></g></svg>