<svg xmlns="http://www.w3.org/2000/svg" width="59" height="50" viewBox="0 0 59 50"><g><g><path fill="#0d386b" d="M.39 30.08c.374-.32.7-.75 1.13-.944 3.369-1.52 6.738-3.044 10.148-4.466 1.92-.797 3.982-.755 6.026-.598 1.75.143 3.446.536 4.906 1.55a12.118 12.118 0 0 1 2.41 2.143c1.173 1.408 2.793 1.793 4.399 2.263.155.044.394-.096.553-.2 2.365-1.475 4.704-2.967 7.06-4.443a8.424 8.424 0 0 1 4.671-1.333c1.299.02 2.4.484 3.01 1.781.573-.173 1.115-.398 1.678-.49.788-.112 1.577-.223 2.365-.126 1.38.174 1.95.728 2.61 2.108.949-.2 1.869-.486 2.809-.598 1.61-.173 2.932.399 3.773 1.865.842 1.466.582 2.868-.394 4.103a10.51 10.51 0 0 1-2.329 2.225 2482.543 2482.543 0 0 1-20.052 13.315c-1.663 1.099-3.47 1.744-5.506 1.53a11.775 11.775 0 0 1-4.172-1.347c-3.285-1.703-6.605-3.347-9.833-5.153-1.734-.97-3.22-1.026-4.777.263-.744.633-1.598 1.109-2.406 1.619s-1.704.2-1.895-.703a1.13 1.13 0 0 1 .073-.701c.098-.22.264-.402.472-.518 1.291-.86 2.584-1.72 3.91-2.522 1.527-.926 3.106-.797 4.645-.014 3.308 1.697 6.605 3.422 9.91 5.131.587.303 1.178.596 1.773.879 2.259 1.067 4.424.97 6.543-.438 5.062-3.359 10.15-6.674 15.214-10.03a209.9 209.9 0 0 0 5.417-3.743c.392-.299.74-.65 1.037-1.046.394-.486.7-1.034.317-1.67-.382-.638-1.003-.754-1.677-.676-1.427.17-2.662.824-3.829 1.607-3.397 2.293-6.845 4.484-10.124 6.93-1.658 1.233-3.382 1.64-5.32 1.628-2.324-.014-4.648.014-6.969-.024-2.321-.038-4.63-.57-6.897-1.157a1.214 1.214 0 0 1-.748-.528 1.238 1.238 0 0 1-.174-.905c.167-.677.788-.996 1.626-.83 1.363.28 2.721.597 4.094.834.875.144 1.76.219 2.645.223 2.493.02 4.985.018 7.488-.041.64-.016 1.289-.235 1.908-.44.544-.18.762-.674.764-1.226a1.3 1.3 0 0 0-.183-.712 1.28 1.28 0 0 0-.538-.495c-.88-.468-1.839-.516-2.802-.564a27.267 27.267 0 0 1-9.581-2.207c-.603-.263-1.113-.765-1.636-1.195a7.204 7.204 0 0 1-.865-.906c-1.576-1.839-3.651-2.522-5.974-2.687-2.325-.16-4.65.289-6.754 1.302-2.597 1.214-5.22 2.375-7.827 3.568-1.058.486-1.44.398-2.11-.504zm40.649 4.111c2.581-1.755 5.198-3.526 7.8-5.318a.774.774 0 0 0 .261-.564c0-.558-.384-.727-.869-.757-1.361-.09-2.561.398-3.663 1.13-1.576 1.053-3.11 2.153-4.662 3.238-.08.06-.155.126-.223.2zm-7.979-3.426c.026.026.051.072.079.074 1.2.1 2.402.199 3.604.283a.552.552 0 0 0 .31-.106c1.77-1.227 3.54-2.459 5.308-3.695a.412.412 0 0 0 .202-.412.416.416 0 0 0-.298-.347 1.651 1.651 0 0 0-.718-.12c-.542.048-1.113.056-1.612.247-2.516.96-4.644 2.604-6.875 4.072z"/></g><g><path fill="#0d386b" d="M30.499 7.54C30.781 2.94 34.393.485 37.615.53c3.415.05 6.445 2.758 6.838 6.196.392 3.438-1.687 6.972-5.796 7.858.554 5.48-3.322 9.031-7.328 9.408a8.117 8.117 0 0 1-5.794-1.732 8.286 8.286 0 0 1-3.037-5.28c-.658-4.729 2.893-9.376 8.001-9.44zm7.202 4.347a.537.537 0 0 0 .282.295.523.523 0 0 0 .406.006c1.811-.45 3.074-1.542 3.583-3.365.88-3.163-1.687-6.189-4.947-5.89-2.218.2-4.151 2.344-4.108 4.57 0 .16.079.428.18.462 1.389.461 2.511 1.32 3.562 2.31.352.534.736 1.051 1.042 1.612zm-1.371 3.938a5.891 5.891 0 0 0-.952-3.257 5.798 5.798 0 0 0-2.582-2.173 5.726 5.726 0 0 0-3.341-.355 5.763 5.763 0 0 0-2.973 1.582 5.865 5.865 0 0 0-1.601 2.985 5.905 5.905 0 0 0 .31 3.382 5.834 5.834 0 0 0 2.118 2.637 5.74 5.74 0 0 0 3.21 1.001 5.66 5.66 0 0 0 2.222-.413 5.707 5.707 0 0 0 1.89-1.252 5.78 5.78 0 0 0 1.262-1.894 5.83 5.83 0 0 0 .437-2.241z"/></g><g><path fill="#0d386b" d="M31.614 12.547v6.408h-2.092V14.75H27.89c.735-.755 1.318-1.518 2.063-2.048.377-.267 1.049-.113 1.661-.155z"/></g></g></svg>