<svg xmlns="http://www.w3.org/2000/svg" width="328" height="62" viewBox="0 0 164 31"><g><g><path fill="#4e7497" d="M4.143 24.666h.832v6.241h-.832v-4.809l-3.107 4.81H.2v-6.242h.836v4.81zm5.585 1.676a.953.953 0 0 0-.368-.788c-.243-.197-.585-.296-1.027-.296-.37 0-.68.101-.932.304-.248.2-.372.449-.372.746h-.832c0-.331.09-.629.273-.891.185-.263.442-.468.771-.613.33-.149.693-.223 1.092-.223.705 0 1.252.157 1.642.471.39.312.585.746.585 1.303 0 .289-.09.552-.269.789a1.8 1.8 0 0 1-.75.561c.743.246 1.114.733 1.114 1.462 0 .56-.21 1.004-.632 1.333-.422.329-.985.493-1.69.493-.419 0-.8-.073-1.144-.219a1.85 1.85 0 0 1-.797-.63 1.642 1.642 0 0 1-.286-.968h.832c0 .328.131.603.394.823.263.217.597.325 1 .325.454 0 .816-.104 1.084-.313a.992.992 0 0 0 .407-.827c0-.731-.457-1.104-1.373-1.119h-.78v-.677h.776c.421-.008.74-.103.957-.283.217-.18.325-.434.325-.763zm5.945-.998H12.63v5.563h-.836v-6.24h3.878zm5.585 2.644c0 .612-.104 1.146-.312 1.603-.208.455-.503.802-.884 1.042s-.826.36-1.334.36c-.497 0-.938-.12-1.322-.36a2.43 2.43 0 0 1-.897-1.033c-.21-.449-.319-.967-.325-1.556v-.45c0-.6.106-1.13.316-1.59.211-.46.509-.812.893-1.055a2.42 2.42 0 0 1 1.326-.368c.505 0 .95.121 1.334.364.388.24.685.59.893 1.05.208.457.312.99.312 1.599zm-.828-.403c0-.74-.15-1.307-.45-1.701-.3-.397-.72-.596-1.261-.596-.526 0-.94.199-1.244.596-.3.394-.455.943-.463 1.646v.458c0 .718.151 1.282.455 1.693.306.409.726.613 1.26.613.538 0 .954-.193 1.248-.578.295-.389.447-.945.455-1.668zm6.314-2.241h-2.028v5.563h-.828v-5.563h-2.023v-.678h4.879zm5.667 2.644c0 .612-.104 1.146-.312 1.603-.208.455-.503.802-.884 1.042s-.826.36-1.334.36c-.497 0-.938-.12-1.322-.36a2.432 2.432 0 0 1-.897-1.033c-.21-.449-.32-.967-.325-1.556v-.45c0-.6.106-1.13.317-1.59.21-.46.508-.812.892-1.055a2.42 2.42 0 0 1 1.326-.368c.505 0 .95.121 1.335.364.387.24.684.59.892 1.05.208.457.312.99.312 1.599zm-.828-.403c0-.74-.15-1.307-.45-1.701-.3-.397-.72-.596-1.261-.596-.526 0-.94.199-1.244.596-.3.394-.455.943-.463 1.646v.458c0 .718.151 1.282.455 1.693.306.409.726.613 1.26.613.538 0 .954-.193 1.248-.578.295-.389.447-.945.455-1.668zm2.076 3.322v-6.24h2.062c.685 0 1.2.14 1.543.42.346.28.52.694.52 1.242 0 .292-.084.55-.251.776a1.635 1.635 0 0 1-.685.519c.34.094.61.274.806.54.2.263.299.577.299.943 0 .56-.184 1-.55 1.32-.367.32-.886.48-1.556.48zm.832-2.919v2.246h1.373c.387 0 .692-.098.915-.296.225-.2.338-.474.338-.823 0-.751-.413-1.127-1.24-1.127zm0-.66h1.256c.364 0 .655-.09.871-.27.22-.18.33-.424.33-.733 0-.343-.101-.591-.304-.746-.202-.157-.51-.235-.923-.235h-1.23zm9.467-2.662v6.241h-.832v-5.563h-2.261l-.113 2.473c-.043.828-.13 1.451-.26 1.869-.127.417-.315.724-.563.921-.249.194-.581.294-.997.3h-.273v-.673l.173-.008c.27-.02.476-.106.62-.258.144-.154.254-.398.33-.733.074-.334.128-.848.16-1.543l.13-3.026zm5.078 3.357h-2.734v2.211h3.176v.673H45.47v-6.24h3.965v.677h-3.133v2.006h2.734zm6.327 2.884h-.837v-2.885h-3.18v2.885h-.832v-6.24h.832v2.683h3.18v-2.684h.837zm5.455-6.24h.832v6.24h-.832v-4.809l-3.107 4.81h-.836v-6.242h.836v4.81zm5.914 3.355h-2.734v2.212h3.176v.673h-4.008v-6.24h3.965v.677h-3.133v2.006h2.734zm8.497 2.885h-.836v-5.563h-3.111v5.563h-.832v-6.24h4.78zm5.083-2.884h-2.734v2.211h3.176v.673h-4.008v-6.24h3.964v.677h-3.132v2.006h2.734zm6.048-3.357v6.241h-.836v-2.584c-.303.085-.58.145-.827.18a6.834 6.834 0 0 1-.85.047c-.719 0-1.253-.155-1.603-.463-.35-.309-.528-.782-.537-1.419v-2.002h.836v1.98c.003.435.103.748.299.94.2.19.534.287 1.005.287a6.39 6.39 0 0 0 1.677-.232v-2.975zm5.066 4.612h-2.643l-.594 1.63h-.858l2.41-6.242h.727l2.413 6.241h-.853zm-2.392-.677h2.145l-1.075-2.919zm8.492-3.257H95.5v5.563h-.828v-5.563h-2.024v-.678h4.88zm4.502 2.678h-2.734v2.212h3.176v.673h-4.008v-6.24h3.965v.677h-3.133v2.006h2.734zm5.455-3.356h.832v6.241h-.832v-4.809l-3.106 4.81h-.837v-6.242h.837v4.81zm-.234-1.551c0 .346-.119.624-.359.836-.237.208-.549.312-.936.312s-.701-.105-.94-.317a1.055 1.055 0 0 1-.36-.831h.654c0 .2.055.357.165.471.11.112.27.167.481.167.202 0 .36-.055.472-.167.116-.111.173-.268.173-.471zm8.762 1.551h.832v6.241h-.832v-4.809l-3.107 4.81h-.836v-6.242h.836v4.81zm5.416 0v5.568h2.171v-5.568h.827v5.568h2.158v-5.568h.832v6.241h-6.824v-6.24zm11.716.678h-2.028v5.563h-.827v-5.563h-2.024v-.678h4.879zm4.073 3.934h-2.643l-.594 1.63h-.858l2.409-6.242h.728l2.414 6.241h-.854zm-2.392-.677h2.145l-1.075-2.919zm5.772-3.935l2.062 5.092 2.063-5.092h1.079v6.241h-.832v-2.43l.078-2.623-2.072 5.053h-.636l-2.067-5.04.082 2.61v2.43h-.832v-6.24zm11.491 6.241h-.837v-5.563h-3.111v5.563h-.832v-6.24h4.78zm6.369-2.919c0 .612-.104 1.146-.312 1.603a2.348 2.348 0 0 1-.884 1.042c-.381.24-.826.36-1.334.36-.497 0-.938-.12-1.322-.36a2.434 2.434 0 0 1-.897-1.033c-.211-.449-.319-.967-.325-1.556v-.45c0-.6.106-1.13.316-1.59.211-.46.509-.812.893-1.055a2.42 2.42 0 0 1 1.326-.368c.505 0 .95.121 1.334.364.388.24.685.59.893 1.05.208.457.312.99.312 1.599zm-.828-.403c0-.74-.15-1.307-.45-1.701-.301-.397-.721-.596-1.261-.596-.526 0-.94.199-1.244.596-.3.394-.455.943-.463 1.646v.458c0 .718.151 1.282.455 1.693.306.409.726.613 1.261.613.537 0 .953-.193 1.247-.578.295-.389.447-.945.455-1.668zm2.076 3.322v-6.24h2.062c.685 0 1.199.14 1.543.42.347.28.52.694.52 1.242 0 .292-.084.55-.251.776a1.639 1.639 0 0 1-.685.519c.341.094.609.274.806.54.199.263.299.577.299.943 0 .56-.184 1-.55 1.32-.367.32-.886.48-1.556.48zm.832-2.919v2.246h1.373c.387 0 .692-.098.915-.296.225-.2.338-.474.338-.823 0-.751-.413-1.127-1.24-1.127zm0-.66h1.256c.364 0 .655-.09.871-.27.22-.18.33-.424.33-.733 0-.343-.101-.591-.304-.746-.202-.157-.51-.235-.923-.235h-1.23zm-145.18-9.926h-4.188v-7.217H4.965v7.217H.753V.12h4.212v6.86h6.203V.12h4.188zm12.814-3.228H22.4l-1.008 3.228h-4.5L23.3.12h3.96l6.455 17.282H29.19zm-4.763-3.217h3.756l-1.884-5.994zm32.385 6.445H51.58V3.337h-6.275v14.065h-4.212V.12h14.699zm13.463-7.323H62.63v4.118h7.823v3.205H58.42V.12h12.058v3.217h-7.847V6.98h6.624zM86.725.12v17.282h-4.2v-6.386l-1.236.155-1.547.095c-2.352 0-4.152-.503-5.4-1.508-1.248-1.013-1.88-2.445-1.896-4.297V.12h4.212v5.282c0 .942.228 1.622.684 2.042.464.411 1.264.617 2.4.617l.36-.012c.983-.048 1.791-.123 2.423-.226V.12zm12.767 14.054H93.72l-1.008 3.228h-4.5L94.62.12h3.96l6.455 17.282h-4.523zm-4.764-3.217h3.756L96.6 4.963zm23.866-7.62h-5.243v14.065h-4.212V3.337h-5.148V.12h14.603zm6.215 2.73h2.172c1.384 0 2.608.233 3.672.7 1.064.467 1.88 1.128 2.448 1.982.576.847.864 1.82.864 2.92 0 1.701-.64 3.082-1.92 4.143-1.272 1.06-2.984 1.59-5.136 1.59h-6.323V.12h4.223zm0 3.204v4.926h2.16c.856 0 1.532-.237 2.028-.712.504-.475.756-1.088.756-1.84 0-.712-.248-1.285-.744-1.72-.496-.436-1.184-.654-2.064-.654z"/></g></g></svg>