<svg xmlns="http://www.w3.org/2000/svg" width="57" height="41" viewBox="0 0 57 41"><g><g><g/><g><g><g><path fill="#0d386b" d="M56.484 33.66a9.69 9.69 0 0 1-.063.986 1.178 1.178 0 0 1-1.064 1.081 61.137 61.137 0 0 1-3.567.094c-.641-.006-1.011.137-1.274.808-.785 2.004-2.275 3.333-4.294 4.065-.408.123-.823.223-1.243.3h-1.258c-.265-.058-.532-.108-.794-.177-2.475-.64-4.074-2.245-5.01-4.561a.468.468 0 0 0-.48-.35c-.462-.01-.924-.058-1.386-.058-5.468-.006-6.514-.01-13.401-.027a.405.405 0 0 0-.45.332c-.798 2.236-2.305 3.78-4.567 4.552-.404.137-.83.2-1.245.296H15.13c-.254-.056-.514-.099-.765-.17-2.434-.715-4.126-2.239-4.987-4.63-.126-.346-.279-.476-.644-.476-.86-.002-1.719-.053-2.578-.071a.773.773 0 0 1-.538-.24c-.474-.405-.577-.893-.554-1.49.031-1.193 0-2.382 0-3.581a1.125 1.125 0 0 0-.538-.05 1.192 1.192 0 0 1-1.062-.671.871.871 0 0 1-.058-.396 1.34 1.34 0 0 1 .085-.864c.267-.55.958-.87 1.72-.775h8.452l20.842-.006V3.147h-.41c-3.727-.01-7.454-.025-11.181-.043-.364 0-.725-.042-1.088-.065a1.09 1.09 0 0 1-1.021-.792 1.196 1.196 0 0 1 .204-1.265A1.331 1.331 0 0 1 22.13.441c4.228.029 8.444.02 12.673.029.44 0 .872.047 1.32.047a1.11 1.11 0 0 1 1.123 1.043 29.4 29.4 0 0 1 .12 2.437v4.535h.375c2.26 0 4.52-.011 6.78 0a.685.685 0 0 1 .482.19c.416.514.8 1.052 1.151 1.611 1.205 1.979 2.383 3.978 3.59 5.958.17.278.395.52.66.712 1.365.976 2.759 1.925 4.125 2.91.391.283.749.61 1.065.976.554.653.848 1.486.826 2.34.013 3.477.04 6.952.063 10.43zm-46.13-3.333H7.819v2.603l1.242.08zm7.899 7.184c1.043-.806 1.456-1.925 1.456-3.29A3.7 3.7 0 0 0 19.05 32c-1.025-1.47-2.609-1.86-4.303-1.52-1.81.363-2.849 1.656-2.916 3.563-.034.958.083 1.882.693 2.686.99 1.31 2.353 1.65 3.906 1.47a3.527 3.527 0 0 0 1.828-.687zm20.582-7.15c-6.889-.072-9.368-.088-17.702.042.258.434.491.792.673 1.173.181.387.335.786.462 1.195a.377.377 0 0 0 .438.313c1.974-.011 3.946 0 5.918 0 4.187.017 2.535.023 5.305.034h3.674zm9.384 3.91c.193-2.15-1.523-3.93-3.953-3.906-2.349.02-3.892 1.533-3.897 3.923-.004 2.39 1.546 3.924 3.938 3.957 2.22.02 4.085-1.533 3.912-3.975zm5.442-3.922H49.74a.75.75 0 0 0 .018.143c.38.802.751 1.603 1.144 2.397a.406.406 0 0 0 .294.175c.673.034 1.346.047 2.02.065h.448zm-.026-2.762a.42.42 0 0 0 .033-.125 902.657 902.657 0 0 0-.033-4.476.787.787 0 0 0-.382-.685 636.192 636.192 0 0 1-5.04-3.45 1.4 1.4 0 0 1-.398-.422 1403.129 1403.129 0 0 1-4.092-6.887.448.448 0 0 0-.462-.275c-.307.024-.617 0-.924 0h-4.95v16.32z"/></g><g><path fill="#0d386b" d="M28.576 9H9.245c-.748 0-1.355.605-1.355 1.352 0 .746.607 1.352 1.355 1.352h19.331c.748 0 1.355-.606 1.355-1.352 0-.747-.607-1.352-1.355-1.352z"/></g><g><path fill="#0d386b" d="M21.336 18.46H2.005c-.748 0-1.355.605-1.355 1.352 0 .746.607 1.352 1.355 1.352h19.331c.748 0 1.355-.606 1.355-1.352 0-.747-.607-1.352-1.355-1.352z"/></g></g></g></g></g></svg>